<?xml version="1.0" encoding="UTF-8" standalone="no"?>
<svg width="53px" height="54px" viewBox="0 0 53 54" version="1.1" xmlns="http://www.w3.org/2000/svg" xmlns:xlink="http://www.w3.org/1999/xlink" xmlns:sketch="http://www.bohemiancoding.com/sketch/ns">
    <!-- Generator: Sketch 3.3.3 (12081) - http://www.bohemiancoding.com/sketch -->
    <title>Shape</title>
    <desc>Created with Sketch.</desc>
    <defs></defs>
    <g id="Page-1" stroke="none" stroke-width="1" fill="none" fill-rule="evenodd" sketch:type="MSPage">
        <g id="style-guide" sketch:type="MSArtboardGroup" transform="translate(-401.000000, -1939.000000)" fill="#4A2B13">
            <g id="email131-+-facebook2-+-twitter" sketch:type="MSLayerGroup" transform="translate(229.000000, 1939.000000)">
                <g id="email131" transform="translate(172.055571, 0.593438)" sketch:type="MSShapeGroup">
                    <path d="M26.2222147,52.4444294 C23.809771,52.4444294 21.4847346,52.1297629 19.2471056,51.5004297 C17.0094766,50.8708395 14.9204402,49.988282 12.9799963,48.851986 C11.0395524,47.7156901 9.27392327,46.3521349 7.68310891,44.7613205 C6.09229455,43.1706776 4.72873939,41.404877 3.59244342,39.4644332 C2.45614745,37.5238179 1.57333288,35.4349528 0.94399973,33.1972381 C0.314666577,30.9596948 0,28.6346585 0,26.2222147 C0,23.809771 0.314666577,21.4847346 0.94399973,19.2471056 C1.57333288,17.0094766 2.45614745,14.9204402 3.59244342,12.9799963 C4.72873939,11.0395524 6.09229455,9.27392327 7.68310891,7.68310891 C9.27392327,6.09229455 11.0395524,4.72873939 12.9799963,3.59244342 C14.9204402,2.45614745 17.0094766,1.57333288 19.2471056,0.94399973 C21.4847346,0.314666577 23.809771,0 26.2222147,0 C29.8233989,0 33.2235461,0.690518321 36.4226562,2.07155496 C39.6217664,3.4525916 42.4013212,5.32310959 44.7613205,7.68310891 C47.1213199,10.0431082 48.9918378,12.822663 50.3728745,16.0217732 C51.7539111,19.2208834 52.4444294,22.6210306 52.4444294,26.2222147 C52.4444294,28.6346585 52.1297629,30.9596948 51.5004297,33.1973238 C50.8708395,35.4346957 49.988282,37.5237322 48.851986,39.4644332 C47.7156901,41.404877 46.3521349,43.1705062 44.7613205,44.7613205 C43.1706776,46.3521349 41.404877,47.7159471 39.4644332,48.851986 C37.5238179,49.988282 35.4349528,50.8710966 33.1971524,51.5004297 C30.9596948,52.1297629 28.6346585,52.4444294 26.2222147,52.4444294 L26.2222147,52.4444294 Z M38.8613222,15.4186623 L14.0026627,15.4186623 C13.757922,15.4186623 13.5481443,15.4973289 13.3733295,15.6546622 C13.1985147,15.8119955 13.1111074,16.0305139 13.1111074,16.3102176 L13.1111074,19.0897723 C13.1111074,19.2296241 13.1635518,19.29955 13.2684406,19.29955 L26.3271036,26.746659 L26.4322495,26.7991034 C26.5019183,26.7991034 26.5546199,26.781622 26.5895828,26.746659 L39.2286903,19.29955 C39.2983591,19.2645871 39.3510606,19.2471056 39.3860236,19.2471056 C39.4207295,19.2471056 39.473431,19.2296241 39.5433569,19.1946612 C39.6832087,19.1946612 39.7531346,19.1247353 39.7531346,18.9848835 L39.7531346,16.3102176 C39.7531346,16.0305139 39.6656415,15.8119955 39.4906554,15.6546622 C39.3156692,15.4973289 39.1060629,15.4186623 38.8613222,15.4186623 L38.8613222,15.4186623 Z M21.0302162,26.5893257 C21.0651792,26.5543628 21.0826606,26.5018327 21.0826606,26.4319924 C21.0826606,26.3268465 21.0476977,26.2746592 20.9777718,26.2746592 L13.4782184,21.9741302 C13.3733295,21.9391673 13.2859221,21.9391673 13.2159962,21.9741302 C13.1460703,21.9741302 13.1111074,22.0265747 13.1111074,22.1314635 L13.1111074,33.4070159 C13.1111074,33.5121618 13.1635518,33.5818306 13.2684406,33.6167936 L13.3733295,33.6167936 C13.4432554,33.6167936 13.4782184,33.5993121 13.4782184,33.5643491 L21.0302162,26.5893257 L21.0302162,26.5893257 Z M30.1555469,27.4284366 C30.120584,27.3232907 30.0329195,27.3060663 29.8930677,27.3759922 L27.0086241,29.0542139 C26.6589946,29.2639916 26.2921406,29.2639916 25.9072911,29.0542139 L23.3899585,27.6384714 C23.2850696,27.5685455 23.1976622,27.5685455 23.1277363,27.6384714 L13.5304057,36.5540244 C13.4954428,36.5887303 13.4779613,36.6589133 13.4779613,36.763545 C13.4779613,36.798508 13.5129242,36.8510381 13.5828501,36.9208783 C13.7926279,36.9908042 13.9324797,37.0260243 14.0024056,37.0260243 L38.5989287,37.0260243 C38.6688546,37.0260243 38.7390376,36.9910613 38.8087064,36.9208783 C38.8087064,36.7810265 38.7912249,36.6938762 38.756262,36.6586562 L30.1555469,27.4284366 L30.1555469,27.4284366 Z M39.5955442,21.7644382 L39.3860236,21.7644382 L32.2535812,26.012437 C32.1839124,26.012437 32.1486923,26.0648814 32.1486923,26.1697703 C32.1137294,26.2047332 32.1312109,26.2571777 32.2008797,26.3268465 L39.3333221,34.0364347 C39.403248,34.1063606 39.4556924,34.1415806 39.4906554,34.1415806 L39.5955442,34.1415806 C39.7006902,34.0364347 39.7531346,33.9667659 39.7531346,33.9318029 L39.7531346,21.9743016 C39.7528775,21.90429 39.7004331,21.8343641 39.5955442,21.7644382 L39.5955442,21.7644382 Z" id="Shape"></path>
                </g>
            </g>
        </g>
    </g>
</svg>