<?xml version="1.0" encoding="UTF-8" standalone="no"?>
<svg width="53px" height="53px" viewBox="0 0 53 53" version="1.1" xmlns="http://www.w3.org/2000/svg" xmlns:xlink="http://www.w3.org/1999/xlink" xmlns:sketch="http://www.bohemiancoding.com/sketch/ns">
    <!-- Generator: Sketch 3.3.3 (12081) - http://www.bohemiancoding.com/sketch -->
    <title>facebook2</title>
    <desc>Created with Sketch.</desc>
    <defs></defs>
    <g id="Page-1" stroke="none" stroke-width="1" fill="none" fill-rule="evenodd" sketch:type="MSPage">
        <g id="style-guide" sketch:type="MSArtboardGroup" transform="translate(-573.000000, -1939.000000)" fill="#4A2B13">
            <g id="email131-+-facebook2-+-twitter" sketch:type="MSLayerGroup" transform="translate(229.000000, 1939.000000)">
                <g id="facebook2" transform="translate(344.555571, 0.593438)" sketch:type="MSShapeGroup">
                    <path d="M25.9507139,0 C11.6415492,0 0,11.6415492 0,25.9507139 C0,40.2588333 11.6415492,51.9014278 25.9507139,51.9014278 C40.2588333,51.9014278 51.9014278,40.2588333 51.9014278,25.9507139 C51.9014278,11.6415492 40.2609239,0 25.9507139,0 L25.9507139,0 Z M32.40442,26.8643095 L28.1824377,26.8643095 L28.1824377,41.912504 L21.926294,41.912504 L21.926294,26.8643095 L18.9524045,26.8643095 L18.9524045,21.5458034 L21.926294,21.5458034 L21.926294,18.1057084 C21.926294,15.6419271 23.0970343,11.792073 28.2399294,11.792073 L32.8758521,11.8098431 L32.8758521,16.972599 L29.5110189,16.972599 C28.9632797,16.972599 28.1845283,17.2464686 28.1845283,18.4213901 L28.1845283,21.5468487 L32.9511139,21.5468487 L32.40442,26.8643095 L32.40442,26.8643095 Z" id="Shape"></path>
                </g>
            </g>
        </g>
    </g>
</svg>