<?xml version="1.0" encoding="UTF-8" standalone="no"?>
<svg width="180px" height="129px" viewBox="0 0 180 129" version="1.1" xmlns="http://www.w3.org/2000/svg" xmlns:xlink="http://www.w3.org/1999/xlink" xmlns:sketch="http://www.bohemiancoding.com/sketch/ns">
    <!-- Generator: Sketch 3.3.3 (12081) - http://www.bohemiancoding.com/sketch -->
    <title>trees13 + Rectangle 15 Copy 2 + See our hours</title>
    <desc>Created with Sketch.</desc>
    <defs></defs>
    <g id="Page-1" stroke="none" stroke-width="1" fill="none" fill-rule="evenodd" sketch:type="MSPage">
        <g id="style-guide" sketch:type="MSArtboardGroup" transform="translate(-180.000000, -2038.000000)">
            <g id="trees13-+-Rectangle-15-Copy-2-+-See-our-hours" sketch:type="MSLayerGroup" transform="translate(180.000000, 2038.000000)">
                <g id="trees13-+-Rectangle-15-Copy-2">
                    <g id="Rectangle-15-+-tropical1-+-See-our-hours">
                        <rect id="Rectangle-15" stroke="#4A2B13" fill-opacity="0.5" fill="#FFE9D1" sketch:type="MSShapeGroup" x="0" y="0" width="180" height="129" rx="8"></rect>
                        <g id="tropical1" transform="translate(55.000000, 10.000000)" sketch:type="MSShapeGroup">
                            <g id="Group">
                                <path d="M6.79627778,9.27209589 C6.79961538,8.00543836 7.83397009,6.97806849 9.11045299,6.97806849 C10.0549957,6.97806849 10.8639103,7.54238356 11.2258889,8.34583562 C11.5863504,7.54117808 12.395265,6.97806849 13.3398077,6.97806849 C14.2831368,6.97806849 15.0920513,7.54238356 15.4541816,8.34583562 C15.8150983,7.54117808 16.6250748,6.97806849 17.5684038,6.97806849 C18.5114295,6.97806849 19.3218611,7.54238356 19.6835363,8.34583562 C20.044453,7.54117808 20.8533675,6.97806849 21.7966966,6.97806849 C22.7412393,6.97806849 23.5501538,7.54238356 23.9121325,8.34583562 C24.272594,7.54117808 25.0830256,6.97806849 26.0248376,6.97806849 C26.9693803,6.97806849 27.7793568,7.54238356 28.1402735,8.34583562 C28.500735,7.54117808 29.3111667,6.97806849 30.2557094,6.97806849 C31.1985833,6.97806849 32.007953,7.54238356 32.3684145,8.34583562 C32.7317585,7.54117808 33.5394594,6.97806849 34.4838504,6.97806849 C35.4282415,6.97806849 36.2376111,7.54238356 36.5982244,8.34583562 C36.9603547,7.54117808 37.7692692,6.97806849 38.7121432,6.97806849 C39.6566859,6.97806849 40.4656004,7.54238356 40.8268205,8.34583562 C41.1881923,7.54117808 41.9969551,6.97806849 42.9414979,6.97806849 C43.8851303,6.97806849 44.6940449,7.54238356 45.0546581,8.34583562 C45.4167885,7.54117808 46.2255513,6.97806849 47.170094,6.97806849 C48.1129679,6.97806849 48.9218825,7.54238356 49.2853782,8.34583562 C49.6459915,7.54117808 50.454906,6.97806849 51.3985385,6.97806849 C52.3430812,6.97806849 53.1519957,7.54238356 53.5139744,8.34583562 C53.8745876,7.54117808 54.6835021,6.97806849 55.6263761,6.97806849 C56.5709188,6.97806849 57.3798333,7.54238356 57.741812,8.34583562 C58.1022735,7.54117808 58.9104295,6.97806849 59.8557308,6.97806849 C61.1338825,6.97806849 62.1729402,8.00769863 62.1729402,9.2790274 L62.9019038,9.2790274 C64.9040128,9.2790274 65.9316923,7.77820548 65.1992393,5.92945205 L64.2286026,3.47810959 C63.497515,1.62935616 61.2802821,0.130493151 59.2789316,0.130493151 L10.4948013,0.130493151 C8.49193376,0.130493151 6.27470085,1.63056164 5.54361325,3.47810959 L4.5729765,5.92945205 C3.85144658,7.75289041 4.84483974,9.23156164 6.79627778,9.27209589 L6.79627778,9.27209589 Z" id="Shape" fill="#4A2B13"></path>
                                <rect id="Rectangle-path" fill="#4A2B13" x="18.4754744" y="15.2511233" width="2.71832906" height="7.72365753"></rect>
                                <rect id="Rectangle-path" fill="#4A2B13" x="14.2473333" y="15.2511233" width="3.01901709" height="7.72365753"></rect>
                                <rect id="Rectangle-path" fill="#4A2B13" x="14.2989145" y="37.7480822" width="3.01992735" height="7.72290411"></rect>
                                <rect id="Rectangle-path" fill="#4A2B13" x="18.5272073" y="37.7480822" width="2.71681197" height="7.72290411"></rect>
                                <rect id="Rectangle-path" fill="#4A2B13" x="48.3479658" y="15.2511233" width="3.0206859" height="7.72365753"></rect>
                                <rect id="Rectangle-path" fill="#4A2B13" x="52.5767137" y="15.2511233" width="2.71787393" height="7.72365753"></rect>
                                <path d="M6.63440385,47.6724932 C6.63440385,49.6603288 8.25678419,51.2732603 10.2575278,51.2732603 L26.7677585,51.2732603 C28.7695641,51.2732603 30.3920962,49.6603288 30.3920962,47.6724932 L30.3920962,39.8730411 C30.3920962,37.8850548 32.012656,36.2743836 34.0152201,36.2743836 L36.028859,36.2743836 C38.0318782,36.2743836 39.6527415,37.8858082 39.6527415,39.8730411 L39.6527415,47.6724932 C39.6527415,49.6603288 41.2758803,51.2732603 43.2758654,51.2732603 L46.8373953,51.2732603 C45.2790363,48.9195616 44.3652906,46.1068767 44.3652906,43.0797671 C44.3652906,34.8305205 51.097547,28.1435753 59.4037885,28.1435753 C60.5740748,28.1435753 61.7118953,28.2897397 62.8058718,28.5422877 L62.8058718,11.569589 C62.7803846,11.569589 62.7573248,11.5775753 62.7303205,11.5775753 L62.0030256,11.5775753 C61.6688098,11.5775753 61.3992222,11.3075479 61.3992222,10.9776986 C61.3992222,10.0398356 60.6296004,9.27782192 59.6865748,9.27782192 C59.0126816,9.27782192 58.3993205,9.67427397 58.1235128,10.2898219 C57.930235,10.7245479 57.212953,10.7233425 57.0196752,10.2898219 C56.7452329,9.67427397 56.1336923,9.27782192 55.4564615,9.27782192 C54.7831752,9.27782192 54.1705726,9.67427397 53.8949167,10.2898219 C53.7022457,10.7245479 52.9843568,10.7233425 52.7910791,10.2898219 C52.5166368,9.67427397 51.9041859,9.27782192 51.2286239,9.27782192 C50.5545791,9.27782192 49.9421282,9.67427397 49.6663205,10.2898219 C49.4722842,10.7245479 48.7557607,10.7233425 48.5615726,10.2898219 C48.2872821,9.67427397 47.6748312,9.27782192 47.0000278,9.27782192 C46.3252244,9.27782192 45.7127735,9.67427397 45.4369658,10.2898219 C45.2442949,10.7245479 44.526406,10.7233425 44.3338868,10.2898219 C44.0588376,9.67427397 43.446235,9.27782192 42.7723419,9.27782192 C42.0958697,9.27782192 41.4841774,9.67427397 41.2091282,10.2898219 C41.0158504,10.7245479 40.2978098,10.7233425 40.1052906,10.2898219 C39.8308483,9.67427397 39.2170321,9.27782192 38.5420769,9.27782192 C37.8671218,9.27782192 37.2563397,9.67427397 36.9805321,10.2898219 C36.7864957,10.7245479 36.0695171,10.7233425 35.8769979,10.2898219 C35.6024038,9.67427397 34.988891,9.27782192 34.3139359,9.27782192 C33.6389808,9.27782192 33.028047,9.67427397 32.752391,10.2898219 C32.558203,10.7245479 31.8401624,10.7233425 31.6461261,10.2898219 C31.3713803,9.67427397 30.7605983,9.27782192 30.0845812,9.27782192 C29.4109915,9.27782192 28.7973269,9.67427397 28.5215192,10.2898219 C28.3297585,10.7245479 27.6109594,10.7233425 27.417985,10.2898219 C27.1432393,9.67427397 26.5320021,9.27782192 25.8549231,9.27782192 C25.1816368,9.27782192 24.5691859,9.67427397 24.2933782,10.2898219 C24.1004038,10.7245479 23.3823632,10.7233425 23.1893889,10.2898219 C22.9150983,9.67427397 22.3026474,9.27782192 21.6266303,9.27782192 C20.9528889,9.27782192 20.340438,9.67427397 20.0650855,10.2898219 C19.8708974,10.7245479 19.1540705,10.7233425 18.9598825,10.2898219 C18.6852885,9.67427397 18.0743547,9.27782192 17.3983376,9.27782192 C16.7247479,9.27782192 16.1110833,9.67427397 15.8352756,10.2898219 C15.6423013,10.7245479 14.9257778,10.7233425 14.7317415,10.2898219 C14.4569957,9.67427397 13.8457585,9.27782192 13.1697415,9.27782192 C12.4964551,9.27782192 11.8829423,9.67427397 11.6069829,10.2898219 C11.4141603,10.7245479 10.6961197,10.7233425 10.5031453,10.2898219 C10.2277927,9.67427397 9.61519017,9.27782192 8.94038675,9.27782192 C8.00100214,9.27782192 7.23244231,10.037274 7.23016667,10.9707671 C7.23016667,11.1338082 7.16311111,11.2872055 7.04917735,11.3981096 C6.93402991,11.5087123 6.77488675,11.5587397 6.62514957,11.5683836 L6.62514957,15.6001096 L3.91122009,15.6001096 L3.91122009,15.4524384 C3.58883761,15.1980822 3.36961752,14.822726 3.36961752,14.382274 C3.36961752,14.3310411 3.39464957,14.2870411 3.39813889,14.2358082 C3.16359615,14.0456438 2.87352778,13.9131918 2.54386325,13.9131918 L1.51921795,13.9131918 C1.19061538,13.9131918 0.900547009,14.0427808 0.665700855,14.2358082 C0.670707265,14.2870411 0.694525641,14.3298356 0.694525641,14.382274 C0.694525641,14.8242329 0.473788462,15.2001918 0.151709402,15.4539452 L0.151709402,31.1230685 C0.44875641,31.3778767 0.647950855,31.7428356 0.647950855,32.1636986 C0.647950855,32.2953973 0.606989316,32.417 0.572399573,32.5386027 C0.818168803,32.774274 1.14980556,32.9219452 1.51921795,32.9219452 L2.54371154,32.9219452 C2.87686538,32.9219452 3.17163675,32.7896438 3.40936538,32.5922466 C3.36461111,32.4561781 3.32304274,32.3160411 3.32304274,32.1644521 C3.32304274,31.7038082 3.56365385,31.3142877 3.91122009,31.0626438 L3.91122009,16.7905205 L6.63288675,16.7905205 L6.63288675,47.6721918 L6.63440385,47.6721918 L6.63440385,47.6724932 Z M47.1009145,13.6776712 L56.3638355,13.6776712 L56.3638355,24.4746986 L47.1009145,24.4746986 L47.1009145,13.6776712 L47.1009145,13.6776712 Z M30.3936132,29.6754384 L30.3936132,24.7760685 L32.8957564,24.7760685 L32.8957564,29.6754384 L30.3936132,29.6754384 L30.3936132,29.6754384 Z M34.1053355,24.7760685 L35.9916902,24.7760685 L35.9916902,29.6754384 L34.1053355,29.6754384 L34.1053355,24.7760685 L34.1053355,24.7760685 Z M39.6527415,29.6754384 L37.1983868,29.6754384 L37.1983868,24.7760685 L39.6527415,24.7760685 L39.6527415,29.6754384 L39.6527415,29.6754384 Z M30.3936132,13.6776712 L39.6542585,13.6776712 L39.6542585,23.5760137 L30.3936132,23.5760137 L30.3936132,13.6776712 L30.3936132,13.6776712 Z M13.0775021,13.6776712 L22.3381474,13.6776712 L22.3381474,24.4746986 L13.0775021,24.4746986 L13.0775021,13.6776712 L13.0775021,13.6776712 Z M13.0775021,36.2743836 L22.3381474,36.2743836 L22.3381474,47.0724658 L13.0775021,47.0724658 L13.0775021,36.2743836 L13.0775021,36.2743836 Z" id="Shape" fill="#4A2B13"></path>
                                <path d="M58.7204893,30.4873288 C51.9442372,30.4873288 46.4522051,35.942274 46.4522051,42.6727671 C46.4522051,49.4032603 51.9442372,54.8573014 58.7204893,54.8573014 C65.4967415,54.8573014 70.9878632,49.4032603 70.9878632,42.6727671 C70.9878632,35.942274 65.4967415,30.4873288 58.7204893,30.4873288 L58.7204893,30.4873288 Z M62.3372415,37.9569315 C61.2109509,38.120726 59.9267308,38.6271781 59.3244444,40.0130274 C59.3244444,40.0130274 62.7325962,46.8238356 62.8465299,51.392 L57.7143526,51.392 C57.7143526,51.392 60.4745534,44.7663836 56.3353141,41.4538767 C56.3353141,41.4538767 54.8608504,42.0086986 53.2692671,44.6033425 C52.673656,45.5734521 51.8994829,45.5668219 51.8462329,44.4335205 C51.7954103,43.2199041 52.0866923,41.5587534 53.4587521,39.743 C53.4587521,39.743 52.5674594,39.476589 51.5890855,39.5784521 C50.5521517,39.6878493 49.9049594,39.3266575 50.5428974,38.3832192 C51.1923654,37.4212466 52.4928184,36.5766575 55.0897799,37.1634247 C55.0897799,37.1634247 55.6967692,34.4623973 57.9162778,33.995726 C59.0340726,33.7606575 59.3576688,34.6453288 58.829265,35.4157808 C58.5273632,35.8550274 58.2553483,36.3837808 58.1497585,36.9500548 C58.1497585,36.9500548 60.1873675,35.3607808 62.7626346,36.7252329 C63.7716538,37.254589 63.4689936,37.793137 62.3372415,37.9569315 L62.3372415,37.9569315 Z" id="Shape" fill="#B0DB72"></path>
                            </g>
                        </g>
                        <text id="See-our-hours" sketch:type="MSTextLayer" font-family="Montserrat" font-size="14" font-weight="normal" fill="#4A2B13">
                            <tspan x="42" y="96">See our hours</tspan>
                        </text>
                    </g>
                </g>
            </g>
        </g>
    </g>
</svg>