<?xml version="1.0" encoding="UTF-8" standalone="no"?>
<svg width="789px" height="790px" viewBox="0 0 789 790" version="1.1" xmlns="http://www.w3.org/2000/svg" xmlns:xlink="http://www.w3.org/1999/xlink" xmlns:sketch="http://www.bohemiancoding.com/sketch/ns">
    <!-- Generator: Sketch 3.3.3 (12081) - http://www.bohemiancoding.com/sketch -->
    <title>Dominican Joe Copy + parrot</title>
    <desc>Created with Sketch.</desc>
    <defs>
        <filter x="-50%" y="-50%" width="200%" height="200%" filterUnits="objectBoundingBox" id="filter-1">
            <feMorphology radius="15" in="SourceAlpha" operator="dilate" result="shadowSpreadOuter1"></feMorphology>
            <feOffset dx="10" dy="10" in="shadowSpreadOuter1" result="shadowOffsetOuter1"></feOffset>
            <feGaussianBlur stdDeviation="5" in="shadowOffsetOuter1" result="shadowBlurOuter1"></feGaussianBlur>
            <feColorMatrix values="0 0 0 0 1   0 0 0 0 0.658823529   0 0 0 0 0.28627451  0 0 0 0.35 0" in="shadowBlurOuter1" type="matrix" result="shadowMatrixOuter1"></feColorMatrix>
            <feMerge>
                <feMergeNode in="shadowMatrixOuter1"></feMergeNode>
                <feMergeNode in="SourceGraphic"></feMergeNode>
            </feMerge>
        </filter>
    </defs>
    <g id="Page-1" stroke="none" stroke-width="1" fill="none" fill-rule="evenodd" sketch:type="MSPage">
        <g id="style-guide" sketch:type="MSArtboardGroup" transform="translate(-1366.000000, -1382.000000)">
            <g id="Dominican-Joe-Copy-+-parrot" sketch:type="MSLayerGroup" transform="translate(1371.000000, 1387.395687)">
                <text id="Dominican-Joe-Copy" sketch:type="MSTextLayer" font-family="Montserrat" font-size="45" font-weight="260" fill="#FFE9D1">
                    <tspan x="81" y="435">Dominican Joe</tspan>
                </text>
                <g id="parrot" transform="translate(177.000000, 60.000000)" stroke="#FFFBB7" filter="url(#filter-1)" fill="#4A2B13" sketch:type="MSShapeGroup">
                    <path d="M414.597,270.652 C408.64,252.672 401.435,235.115 393.226,218.048 C376.841,183.972 356.454,151.805 332.981,122.176 C304.017,85.607 270.668,61.486 226.791,46.182 C217.885,43.077 203.894,42.432 196.061,37.854 C163.809,19.004 128.594,7.091 90.915,1.767 C55.954,-3.174 24.627,16.128 12.481,48.467 C11.689,50.576 10.877,52.779 10.625,53.384 C10.474,53.743 10.343,54.114 10.246,54.506 L9.209,58.627 C8.658,60.814 7.451,63.038 6.585,63.698 C6.075,64.086 5.578,64.51 5.092,64.975 C-3.235,72.948 1.787,84.898 6.198,93.735 C10.955,103.266 18.365,111.561 25.198,119.916 C26.348,121.324 28.266,122.111 30.273,122.821 C32.399,123.576 34.427,123.751 34.851,123.123 C35.275,122.495 34.994,120.602 34.226,118.896 C33.765,117.868 33.296,116.844 32.802,115.828 C32.288,114.771 31.827,113.739 31.419,112.727 C30.713,110.989 30.897,109.573 31.68,109.54 C32.149,109.524 32.618,109.483 33.088,109.41 C34.12,109.251 35.149,109.096 36.181,108.937 C37.89,108.676 40.077,108.859 41.146,109.059 C41.762,109.173 42.415,109.223 43.104,109.194 C53.063,108.766 63.288,106.828 72.684,103.515 C73.459,103.242 74.108,102.919 74.639,102.556 C75.635,101.879 77.381,101.165 78.866,100.916 C79.719,100.773 80.592,100.516 81.473,100.133 C81.473,100.133 81.518,100.112 81.575,100.088 C81.632,100.064 81.657,100.129 81.628,100.235 C81.604,100.341 83.158,101.344 85.1,102.483 C89.005,104.764 92.668,106.901 96.336,109.047 C98.755,110.418 101.163,111.809 103.566,113.209 C105.512,114.343 107.03,116.204 107.001,117.363 C106.981,118.048 106.973,118.75 106.977,119.464 C107.1,142.838 123.538,169.893 144.224,182.663 C146.141,183.846 149.079,185.964 150.727,187.502 C153.195,189.803 155.725,192.043 158.316,194.21 C160.046,195.654 162.233,198.449 163.171,200.501 C165.366,205.291 167.565,210.085 169.76,214.875 C170.698,216.923 171.992,220.334 172.644,222.488 C174.803,229.579 176.989,236.658 179.348,243.679 C180.066,245.817 178.838,247.392 176.586,247.425 C168.148,247.539 160.046,249.918 153.032,254.161 C151.106,255.328 147.891,255.899 145.729,255.263 C126.251,249.49 106.773,243.721 87.291,237.947 C74.647,234.202 69.286,253.888 81.869,257.617 C98.393,262.513 114.917,267.409 131.441,272.305 C133.603,272.946 135.035,274.063 135.064,274.859 C135.092,275.654 135.235,278.082 135.7,280.285 C136.341,283.337 138.16,285.924 141.816,287.812 C142.224,288.024 142.636,288.22 143.856,288.804 C144.986,289.346 145.761,289.514 145.582,289.175 C145.403,288.837 146.002,288.453 146.574,287.841 C146.884,287.51 147.125,287.07 147.259,286.507 C147.692,284.728 148.271,283.108 148.973,281.627 C149.94,279.591 152.376,278.51 154.02,278.995 C155.664,279.485 156.909,281.724 157.357,283.932 C157.573,285.001 157.887,286.045 158.295,287.061 C159.14,289.15 160.796,292.463 162.33,294.116 C162.652,294.463 162.999,294.781 163.374,295.058 C165.177,296.409 167.683,296.821 168.388,297.126 C168.808,297.31 169.241,297.477 169.685,297.632 C170.02,297.746 170.33,297.799 170.623,297.799 C171.149,297.803 172.084,297.885 172.786,297.872 C173.488,297.856 176.335,296.89 176.392,294.637 L176.392,294.556 C176.396,292.304 172.945,290.154 172.063,288.081 C172.034,288.016 172.006,287.951 171.981,287.885 C171.12,285.804 172.593,284.499 174.755,285.135 C193.584,290.712 212.409,296.294 231.238,301.871 C232.21,302.16 233.132,302.3 234.009,302.315 C235.564,302.348 237.09,303.654 237.114,305.771 C237.126,307.019 237.049,308.292 236.861,309.589 C236.71,310.621 237.036,311.495 237.599,312.131 C238.598,313.266 240.773,314.028 241.891,313.922 C242.491,313.865 243.095,313.568 243.62,312.943 C244.53,311.87 245.358,310.752 246.101,309.597 C247.321,307.703 249.809,306.659 251.923,307.443 C257.023,309.332 265.994,312.677 271.09,314.579 C273.199,315.366 275.085,317.827 275.309,320.071 C278.671,353.592 284.379,386.877 292.543,419.643 C292.575,419.765 292.612,419.875 292.657,419.986 C292.73,420.17 293.077,422.336 294.811,423.776 C298.663,426.966 306.336,425.237 306.553,418.611 C306.716,413.67 305.782,409.007 304.937,404.16 C304.472,401.491 303.713,397.933 304.639,395.253 C304.652,395.212 307.439,390.749 307.385,392.43 C307.364,393.009 307.413,393.548 307.512,394.05 C307.683,394.931 308.258,397.396 308.573,399.627 C312.335,426.339 317.863,452.773 326.064,478.763 C335.905,509.951 349.206,539.359 372.939,562.831 C375.476,565.34 378.377,567.486 381.253,569.656 C383.053,571.011 385.04,571.709 385.721,571.17 C386.403,570.632 386.648,568.629 386.26,566.703 C386.015,565.495 385.693,564.336 385.072,563.369 C378.691,553.431 352.138,507.914 365.312,496.192 C366.969,494.723 368.397,494.462 369.624,494.96 C371.709,495.813 372.636,498.481 372.855,499.31 C372.99,499.812 373.125,500.309 373.271,500.807 C379.46,522.21 387.535,542.946 402.047,560.269 C406.943,566.112 412.941,571.032 418.673,576.173 C420.35,577.678 422.447,578.322 423.382,577.576 C424.32,576.829 424.475,574.5 423.72,572.378 C423.247,571.04 422.717,569.738 421.97,568.575 C392.101,521.929 378.143,469.81 371.615,415.792 C369.142,370.716 366.671,325.645 364.198,280.568 C364.075,278.32 365.585,277.349 367.563,278.426 C386.617,288.801 404.969,300.703 422.615,314.652 C424.382,316.051 424.631,315.77 423.855,313.653 C420.162,303.545 416.474,276.319 414.597,270.652 L414.597,270.652 Z M227.736,257.583 C226.207,260.843 223.914,263.866 220.878,266.698 C219.23,268.236 215.945,269.562 213.775,270.17 C212.522,270.521 211.29,270.949 210.082,271.451 C208.001,272.316 205.68,273.022 204.774,272.753 C203.868,272.484 203.072,271.672 202.909,270.962 C202.746,270.252 203.537,268.836 204.329,267.449 C204.757,266.702 205.165,265.829 205.565,264.846 C207.034,261.247 210.061,258.314 211.86,254.813 C212.786,253.018 213.709,251.214 214.61,249.403 C215.61,247.383 216.756,245.294 217.189,244.735 C217.45,244.401 217.703,244.058 217.948,243.703 L224.533,234.164 C225.814,232.308 227.083,230.88 227.364,230.97 C227.65,231.06 227.879,231.235 227.866,231.374 C227.862,231.456 227.854,231.537 227.854,231.619 L227.854,232.439 C227.854,232.892 227.613,233.149 227.311,233.018 C227.009,232.884 227.025,233.406 227.328,234.193 C227.63,234.981 227.854,237.457 227.854,239.709 L227.854,246.857 C227.854,248.053 227.968,249.224 228.184,250.362 C228.549,252.284 228.695,255.543 227.736,257.583 L227.736,257.583 Z M269.361,292.243 C266.015,290.994 262.67,289.746 259.324,288.497 C257.215,287.709 254.518,285.804 253.016,284.539 C251.515,283.274 251.053,280.985 252.249,279.072 C255.125,274.478 257.997,269.872 260.805,265.225 C261.714,263.715 262.478,262.344 263.085,261.083 C264.064,259.056 265.5,255.836 266.268,253.857 C267.035,251.878 268.239,248.582 269.099,246.501 C269.577,245.343 269.993,244.151 270.34,242.936 C270.955,240.769 271.356,238.986 271.523,239.027 C271.69,239.068 271.796,240.928 271.776,243.184 C271.633,258.676 272.062,274.151 272.943,289.598 C273.069,291.848 271.471,293.03 269.361,292.243 L269.361,292.243 Z" id="Shape"></path>
                </g>
                <path d="M389.5,779.5 C604.61491,779.5 779,605.11491 779,390 C779,174.88509 604.61491,0.5 389.5,0.5 C174.38509,0.5 0,174.88509 0,390 C0,605.11491 174.38509,779.5 389.5,779.5 Z" id="Oval-1" stroke="#4A2B13" stroke-width="10" fill-opacity="0.25" fill="#FFA849" sketch:type="MSShapeGroup"></path>
            </g>
        </g>
    </g>
</svg>