<?xml version="1.0" encoding="UTF-8" standalone="no"?>
<svg width="180px" height="130px" viewBox="0 0 180 130" version="1.1" xmlns="http://www.w3.org/2000/svg" xmlns:xlink="http://www.w3.org/1999/xlink" xmlns:sketch="http://www.bohemiancoding.com/sketch/ns">
    <!-- Generator: Sketch 3.3.3 (12081) - http://www.bohemiancoding.com/sketch -->
    <title>trees13 + Rectangle 15 + Menu</title>
    <desc>Created with Sketch.</desc>
    <defs>
        <filter x="-50%" y="-50%" width="200%" height="200%" filterUnits="objectBoundingBox" id="filter-1">
            <feOffset dx="0" dy="1" in="SourceAlpha" result="shadowOffsetInner1"></feOffset>
            <feGaussianBlur stdDeviation="1.5" in="shadowOffsetInner1" result="shadowBlurInner1"></feGaussianBlur>
            <feComposite in="shadowBlurInner1" in2="SourceAlpha" operator="arithmetic" k2="-1" k3="1" result="shadowInnerInner1"></feComposite>
            <feColorMatrix values="0 0 0 0 0   0 0 0 0 0   0 0 0 0 0  0 0 0 0.35 0" in="shadowInnerInner1" type="matrix" result="shadowMatrixInner1"></feColorMatrix>
            <feMerge>
                <feMergeNode in="SourceGraphic"></feMergeNode>
                <feMergeNode in="shadowMatrixInner1"></feMergeNode>
            </feMerge>
        </filter>
    </defs>
    <g id="Page-1" stroke="none" stroke-width="1" fill="none" fill-rule="evenodd" sketch:type="MSPage">
        <g id="style-guide" sketch:type="MSArtboardGroup" transform="translate(-576.000000, -2038.000000)">
            <g id="trees13-+-Rectangle-15-+-Menu" sketch:type="MSLayerGroup" transform="translate(576.000000, 2038.395687)">
                <g id="trees13-+-Rectangle-15">
                    <g id="trees13-+-Rectangle-15-+-Menu">
                        <g id="trees13" transform="translate(63.000000, 9.000000)" stroke="#4A2B13" filter="url(#filter-1)" fill="#B0DB72" sketch:type="MSShapeGroup">
                            <path d="M53.8635789,15.6977586 C53.5755789,15.3734483 46.7270526,7.76163793 39.0827368,7.49517241 C35.0450526,7.35672414 32.3137895,8.1712931 30.6596842,8.94698276 C30.2087368,7.77965517 28.4835789,4.42844828 22.8306316,1.55517241 C20.7994737,0.523448276 18.3078947,0 15.4212632,0 C10.4693684,0 6.11715789,1.51818966 5.93336842,1.58172414 C5.76284211,1.64241379 5.64442105,1.80077586 5.63589474,1.98189655 C5.62642105,2.16301724 5.72873684,2.33181034 5.89168421,2.40862069 C6.16168421,2.53568966 12.5289474,5.51517241 15.3824211,5.51517241 C15.552,5.51517241 15.7092632,5.50474138 15.8523158,5.48482759 C16.7333684,5.35775862 17.5670526,5.18137931 18.2832632,5.00215517 L17.3074737,5.76172414 C17.1852632,5.85655172 17.1217895,6.00827586 17.1369474,6.16094828 C17.1530526,6.31456897 17.2468421,6.44922414 17.3861053,6.5175 L19.584,7.59189655 C18.8924211,7.52931034 18.1818947,7.49232759 17.4562105,7.48 L17.2468421,7.47810345 C8.658,7.47810345 0.592105263,15.582069 0.252947368,15.9272414 C0.125052632,16.0562069 0.0881052632,16.2496552 0.159157895,16.4175 C0.231157895,16.5834483 0.378,16.702931 0.576947368,16.6877586 C0.953052632,16.682069 9.80147368,16.5331897 12.2504211,14.8680172 C13.1835789,14.2336207 14.0276842,13.5622414 14.7135789,12.9771552 L13.9651579,14.5010345 C13.8969474,14.6394828 13.9054737,14.8025862 13.9869474,14.9343966 C14.0693684,15.0662069 14.2124211,15.1458621 14.3668421,15.1458621 L18.9236842,15.1458621 C19.0790526,15.1458621 19.2230526,15.0652586 19.3035789,14.9325 L19.8738947,14.0060345 L19.818,14.5162069 C19.7943158,14.7371552 19.9364211,14.942931 20.1514737,14.997931 C20.214,15.0140517 21.6890526,15.3857759 23.7003158,15.3857759 C23.7145263,15.3857759 23.7287368,15.3857759 23.7438947,15.3848276 C20.6526316,17.1068966 17.9384211,19.5913793 15.5624211,22.4599138 C15.5586316,22.4618103 15.5463158,22.4675 15.5444211,22.4684483 L15.5482105,22.4760345 C11.9908421,26.7755172 9.198,31.9483621 7.09389474,36.7968966 C7.08252632,36.805431 7.06831579,36.8158621 7.06642105,36.8168103 L7.07873684,36.832931 C3.57915789,44.9046552 1.96863158,52.0461207 1.83410526,52.6539655 C1.79147368,52.8483621 1.88431579,53.0503448 2.06052632,53.1451724 C3.31105263,53.8118103 4.69894737,54.1522414 6.18631579,54.1522414 C8.69873684,54.1522414 10.6086316,53.1897414 10.6901053,53.1489655 C10.836,53.0740517 10.9297895,52.9251724 10.9335789,52.7601724 C11.3447368,32.8150862 25.4510526,17.0462069 27.1942105,15.1743103 C28.6057895,18.7796552 31.6743158,21.1019828 31.8107368,21.2034483 C31.9888421,21.3362069 32.238,21.3181897 32.3952632,21.1598276 L32.7562105,20.7966379 L32.3952632,21.8226724 C32.3422105,21.9687069 32.3715789,22.1318103 32.4682105,22.2531897 L35.3302105,25.7968966 C35.4277895,25.9173276 35.5774737,25.9780172 35.7328421,25.96 C35.8853684,25.9400862 36.0189474,25.8443103 36.0833684,25.7030172 L36.7995789,24.162069 C36.7749474,25.0638793 36.7825263,26.1430172 36.8772632,27.269569 C37.1216842,30.2206034 42.5681053,37.2056034 42.7992632,37.5005172 C42.9110526,37.6418103 43.0957895,37.7043966 43.2729474,37.6550862 C43.4472632,37.6048276 43.5732632,37.455 43.596,37.2757759 C43.6518947,36.7874138 44.8976842,25.234569 39.348,18.5748276 C37.8937895,16.8309483 36.3656842,15.3886207 34.7873684,14.2687069 C35.7404211,14.2175 36.36,14.0932759 36.3931579,14.0866379 C36.6101053,14.042069 36.7635789,13.8438793 36.7503158,13.622931 L36.7370526,13.4105172 L37.0818947,14.0401724 C37.1557895,14.1767241 37.296,14.2649138 37.4513684,14.2725 L41.4521053,14.475431 L41.4757895,14.475431 C41.4795789,14.4763793 41.4814737,14.4763793 41.4833684,14.475431 C41.7315789,14.475431 41.9314737,14.2753448 41.9314737,14.0278448 C41.9314737,13.9339655 41.9030526,13.8476724 41.8537895,13.7756034 L41.3990526,12.7125862 C41.94,13.2161207 42.5870526,13.7756034 43.2956842,14.3132759 C45.3865263,15.8940517 53.1710526,16.4203448 53.4997895,16.4412069 C53.6864211,16.445 53.8512632,16.3539655 53.9308421,16.1908621 C54.0104211,16.0287069 53.9838947,15.8343103 53.8635789,15.6977586 L53.8635789,15.6977586 Z M11.898,29.4069828 C13.1646316,27.2487069 14.5743158,25.1606034 16.1289474,23.2460345 C16.4065263,23.137931 17.0554737,22.9435345 17.6589474,23.2052586 C18.2055789,23.4423276 18.6129474,24.0198276 18.8829474,24.897931 C17.8038947,26.6693103 16.7144211,28.6303448 15.6855789,30.7516379 C14.6216842,29.5577586 13.0954737,29.3102586 11.898,29.4069828 L11.898,29.4069828 Z M11.2954737,30.4586207 C12.0429474,30.2917241 14.0949474,30.0281034 15.2317895,31.7131897 C14.4625263,33.3660345 13.7368421,35.1108621 13.0831579,36.9362931 C11.2850526,35.6077586 9.576,35.7575862 8.442,36.135 C9.29178947,34.2536207 10.2401053,32.34 11.2954737,30.4586207 Z M4.99168421,44.9577586 C5.78652632,44.5917241 8.68736842,43.4471552 10.8890526,44.9112931 C10.6626316,46.0881034 10.4769474,47.2848276 10.3367368,48.5014655 C7.63863158,47.5456034 5.15936842,48.0396552 3.89273684,48.4331897 C4.19684211,47.4052586 4.56347368,46.2331897 4.99168421,44.9577586 Z M7.87642105,37.4132759 C8.53673684,37.0102586 10.5517895,36.0762069 12.7506316,37.8798276 C12.0969474,39.8105172 11.5313684,41.8265517 11.0870526,43.9137069 C9.05684211,42.7710345 6.72536842,43.2944828 5.39905263,43.7686207 C6.084,41.8085345 6.91105263,39.6464655 7.87642105,37.4132759 Z M6.18915789,53.2542241 C4.97084211,53.2542241 3.82831579,53.0019828 2.78905263,52.507931 C2.90842105,52.0081897 3.168,50.9669828 3.56873684,49.5512069 C4.25557895,49.2781034 7.14315789,48.2918966 10.2344211,49.4791379 C10.1425263,50.4615517 10.0762105,51.4534483 10.0487368,52.4586207 C9.48789474,52.6975862 7.99389474,53.2542241 6.18915789,53.2542241 L6.18915789,53.2542241 Z" id="Shape"></path>
                        </g>
                        <rect id="Rectangle-15" stroke="#4A2B13" fill-opacity="0.5" fill="#FFE9D1" sketch:type="MSShapeGroup" x="0" y="0" width="180" height="129" rx="8"></rect>
                        <text id="Menu" sketch:type="MSTextLayer" font-family="Montserrat" font-size="14" font-weight="normal" fill="#000000">
                            <tspan x="70" y="96">Menu</tspan>
                        </text>
                    </g>
                </g>
            </g>
        </g>
    </g>
</svg>