<?xml version="1.0" encoding="UTF-8" standalone="no"?>
<svg width="180px" height="130px" viewBox="0 0 180 130" version="1.1" xmlns="http://www.w3.org/2000/svg" xmlns:xlink="http://www.w3.org/1999/xlink" xmlns:sketch="http://www.bohemiancoding.com/sketch/ns">
    <!-- Generator: Sketch 3.3.3 (12081) - http://www.bohemiancoding.com/sketch -->
    <title>school43 + Learn More about our + trees13 + Rectangle 15 Copy + Our Mission</title>
    <desc>Created with Sketch.</desc>
    <defs></defs>
    <g id="Page-1" stroke="none" stroke-width="1" fill="none" fill-rule="evenodd" sketch:type="MSPage">
        <g id="style-guide" sketch:type="MSArtboardGroup" transform="translate(-377.000000, -2038.000000)">
            <g id="school43-+-Learn-More-about-our-+-trees13-+-Rectangle-15-Copy-+-Our-Mission" sketch:type="MSLayerGroup" transform="translate(377.000000, 2038.395687)">
                <g id="school43-+-Learn-More-about-our-+-trees13-+-Rectangle-15-Copy" sketch:type="MSShapeGroup">
                    <g id="school43" transform="translate(63.000000, 10.500000)">
                        <g id="Group">
                            <path d="M28.2683233,17.0835161 L45.2143838,17.0835161 L53.4209879,10.3312254 L45.2143838,3.57893467 L28.2683233,3.57893467 L28.2683233,0 L23.3691368,0 L23.3691368,3.57723769 L3.55687391,3.57723769 L3.55687391,17.0835161 L23.3691368,17.0835161 L23.3691368,49.7113857 L18.4309196,49.7113857 L18.4309196,53.1460769 L33.0707819,53.1460769 L33.0707819,49.7113857 L28.2683233,49.7113857 L28.2683233,17.0835161 L28.2683233,17.0835161 Z M5.0892485,15.5511415 L5.0892485,5.11300625 L44.6662587,5.11300625 L51.0078798,10.3312254 L44.6662587,15.5511415 L5.0892485,15.5511415 L5.0892485,15.5511415 Z" id="Shape" fill="#FFA849"></path>
                            <path d="M13.4960965,10.1394664 C13.350156,10.0206777 13.1838518,9.92225275 12.9971838,9.84419158 C12.8122128,9.76613042 12.6204539,9.69994813 12.4253009,9.64394773 C12.2284511,9.58794733 12.0383891,9.54212882 11.8517211,9.50140125 C11.6650531,9.46237067 11.4987489,9.41655216 11.3511114,9.36564271 C11.203474,9.31473325 11.0829883,9.25703587 10.9964422,9.19255056 C10.9081992,9.12636827 10.8640777,9.04151918 10.8640777,8.93630631 C10.8640777,8.84636627 10.8861384,8.77169907 10.928563,8.71400169 C10.9709875,8.65460732 11.0252909,8.60709183 11.0897762,8.57484918 C11.1559585,8.53921256 11.2289288,8.51375783 11.3086869,8.49678801 C11.388445,8.48321216 11.4665062,8.47642423 11.5428704,8.47642423 C11.6480833,8.47642423 11.7532961,8.48660612 11.860206,8.51036387 C11.9654189,8.53242463 12.0587529,8.56806125 12.143602,8.6189707 C12.2250571,8.66988016 12.2929364,8.73436547 12.3438458,8.81921456 C12.3947553,8.90236667 12.4151191,9.0024886 12.4117251,9.12467129 L13.8117351,9.12467129 C13.8117351,8.82260852 13.7489468,8.56127332 13.6233701,8.34405965 C13.4977935,8.12514899 13.3348832,7.94526892 13.1329424,7.80441943 C12.9326985,7.66526692 12.703606,7.56005404 12.4439677,7.49217477 C12.1843295,7.4242955 11.9229943,7.38865888 11.6565682,7.38865888 C11.4054149,7.38865888 11.1474736,7.42090153 10.8861384,7.4802959 C10.6248032,7.53969026 10.3889228,7.63811521 10.178497,7.76538884 C9.96637427,7.89775343 9.79497911,8.06575463 9.66091755,8.27618037 C9.52685598,8.48490914 9.46067369,8.73266849 9.46067369,9.02454936 C9.46067369,9.27230871 9.5064922,9.48273445 9.60152318,9.65752358 C9.69485718,9.82891875 9.81364591,9.97485918 9.96298031,10.0936479 C10.1106177,10.2124366 10.2786189,10.3074676 10.4686809,10.3838318 C10.6553489,10.458499 10.8454109,10.5246813 11.0371698,10.5806817 C11.2340197,10.6349851 11.4223847,10.6825006 11.6056587,10.7266221 C11.7889328,10.7673497 11.95354,10.8182592 12.0994804,10.8725626 C12.2454209,10.926866 12.3625126,10.9930483 12.4507557,11.0694125 C12.5389987,11.1440797 12.5831203,11.2425046 12.5831203,11.3646873 C12.5831203,11.4648092 12.5576655,11.5496583 12.5084531,11.6192346 C12.4592406,11.6888108 12.3930583,11.7465082 12.3116032,11.7889328 C12.231845,11.8330543 12.140208,11.8636 12.0366921,11.8839637 C11.9331762,11.9060245 11.8296603,11.9145094 11.7244474,11.9145094 C11.4223847,11.9145094 11.1814133,11.8534181 10.9998362,11.7329324 C10.8199561,11.6124466 10.7215312,11.395233 10.7062584,11.0762004 L9.30285438,11.0762004 C9.30285438,11.4240817 9.36564271,11.7176595 9.49461333,11.9586309 C9.62358395,12.2029963 9.79497911,12.3998462 10.0121928,12.5559685 C10.2277095,12.7120909 10.4754688,12.8257887 10.7554708,12.8953649 C11.0354728,12.9666381 11.3290507,13.0022748 11.6412953,13.0022748 C11.9382672,13.0022748 12.2267541,12.9717291 12.5084531,12.9106377 C12.790152,12.8512434 13.0396084,12.7511215 13.258519,12.6119689 C13.4774297,12.4762104 13.6539158,12.2895424 13.7862804,12.0587529 C13.918645,11.8262664 13.9865242,11.5394764 13.9865242,11.2000801 C13.9865242,10.9557147 13.9407057,10.7486829 13.8490687,10.5772877 C13.7608256,10.4008016 13.6420369,10.2565582 13.4960965,10.1394664 L13.4960965,10.1394664 Z" id="Shape" fill="#4A2B13"></path>
                            <path d="M16.1654489,9.09412562 C16.2672678,8.94309423 16.3962384,8.82260852 16.5540577,8.7309715 C16.711877,8.64103147 16.905333,8.59690994 17.1310316,8.59690994 C17.4280034,8.59690994 17.6723688,8.66648619 17.8675217,8.8056387 C18.0609776,8.94818518 18.1780693,9.15351998 18.2187969,9.42503707 L19.6222009,9.42503707 C19.612019,9.10430751 19.5322608,8.8158206 19.3846234,8.55957634 C19.236986,8.30842303 19.046924,8.09460332 18.8161345,7.91981419 C18.585345,7.74502506 18.3240098,7.61435746 18.0355229,7.52441742 C17.747036,7.43278041 17.4568521,7.38865888 17.1666682,7.38865888 C16.7593925,7.38865888 16.3894505,7.4616291 16.0568421,7.60756953 C15.7259306,7.75181299 15.4425346,7.95205685 15.2083511,8.2083011 C14.9690767,8.46115139 14.7908936,8.75812321 14.66362,9.09751958 C14.5397403,9.43691594 14.475255,9.80346402 14.475255,10.1954668 C14.475255,10.5874696 14.5380433,10.9523207 14.66362,11.2934141 C14.7908936,11.6311134 14.9690767,11.9280853 15.2032602,12.1843295 C15.4374437,12.4371798 15.7208397,12.6374237 16.0517511,12.7816671 C16.3826626,12.9293045 16.7543016,13.0022748 17.1615772,13.0022748 C17.5026706,13.0022748 17.8183092,12.9547593 18.111887,12.8529404 C18.4020709,12.7562124 18.6566182,12.6119689 18.8721349,12.4253009 C19.0893486,12.235239 19.2624407,12.0044495 19.3931083,11.7312354 C19.5237759,11.4580213 19.5984431,11.1457766 19.6188069,10.7995924 L18.2154029,10.7995924 C18.1899482,11.111837 18.0864323,11.3562024 17.9031583,11.5309915 C17.7198842,11.7074776 17.461943,11.7957207 17.1293346,11.7957207 C16.903636,11.7957207 16.7101801,11.7499022 16.5523607,11.6599621 C16.3945414,11.5700221 16.2655708,11.4461424 16.1654489,11.295111 C16.065327,11.1440797 15.9923567,10.9743815 15.9465382,10.7843195 C15.9007197,10.5908636 15.878659,10.3957107 15.878659,10.1937698 C15.878659,9.991829 15.9007197,9.79667609 15.9465382,9.60491715 C15.9923567,9.41655216 16.06363,9.245157 16.1654489,9.09412562 L16.1654489,9.09412562 Z" id="Shape" fill="#4A2B13"></path>
                            <path d="M23.6016233,9.46406765 L21.7536101,9.46406765 L21.7536101,7.50405364 L20.3519031,7.50405364 L20.3519031,12.88688 L21.7536101,12.88688 L21.7536101,10.6689248 L23.6016233,10.6689248 L23.6016233,12.88688 L25.0033303,12.88688 L25.0033303,7.50405364 L23.6016233,7.50405364 L23.6016233,9.46406765 Z" id="Shape" fill="#4A2B13"></path>
                            <path d="M30.3657928,8.2083011 C30.1383973,7.95375383 29.8617892,7.75181299 29.5325747,7.60756953 C29.2033603,7.4616291 28.8266303,7.38865888 28.4040818,7.38865888 C27.9815334,7.38865888 27.6065004,7.4616291 27.2772859,7.60756953 C26.9480714,7.75181299 26.6697664,7.95205685 26.4440678,8.2083011 C26.2183692,8.46115139 26.0452771,8.75812321 25.9264884,9.09751958 C25.8093966,9.43521896 25.7500023,9.80346402 25.7500023,10.1937698 C25.7500023,10.5857726 25.8093966,10.9506237 25.9264884,11.2917171 C26.0452771,11.6294165 26.2183692,11.9263883 26.4440678,12.1809356 C26.6697664,12.4337859 26.9480714,12.6340297 27.2772859,12.7799701 C27.6065004,12.9276076 27.9832303,13.0005778 28.4040818,13.0005778 C28.8266303,13.0005778 29.2016633,12.9276076 29.5325747,12.7799701 C29.8600922,12.6357267 30.1367003,12.4371798 30.3657928,12.1809356 C30.5914914,11.9263883 30.7611896,11.6294165 30.8833723,11.2917171 C30.998767,10.9506237 31.0598584,10.5857726 31.0598584,10.1937698 C31.0598584,9.80346402 31.000464,9.43521896 30.8833723,9.09751958 C30.7611896,8.75812321 30.5914914,8.46115139 30.3657928,8.2083011 L30.3657928,8.2083011 Z M29.5902721,10.7843195 C29.5444536,10.9726845 29.4714834,11.1440797 29.3696645,11.295111 C29.2695426,11.4461424 29.138875,11.5683251 28.9810557,11.6582652 C28.8215394,11.7482052 28.6297804,11.7940237 28.4040818,11.7940237 C28.1783833,11.7940237 27.9849273,11.7482052 27.827108,11.6582652 C27.6675917,11.5683251 27.5386211,11.4461424 27.4384992,11.295111 C27.3383772,11.1440797 27.265407,10.9743815 27.2195885,10.7843195 C27.175467,10.5908636 27.1517092,10.3957107 27.1517092,10.1937698 C27.1517092,9.991829 27.175467,9.79667609 27.2195885,9.60491715 C27.265407,9.41485518 27.3383772,9.24346002 27.4384992,9.09242863 C27.5386211,8.94139725 27.6675917,8.82091154 27.827108,8.72927452 C27.9849273,8.63933449 28.1783833,8.59521296 28.4040818,8.59521296 C28.6297804,8.59521296 28.8232363,8.63933449 28.9810557,8.72927452 C29.138875,8.82091154 29.2678456,8.94139725 29.3696645,9.09242863 C29.4731804,9.24346002 29.5461506,9.4131582 29.5902721,9.60491715 C29.6326967,9.79497911 29.6581514,9.991829 29.6581514,10.1937698 C29.6547574,10.3957107 29.6326967,10.5908636 29.5902721,10.7843195 L29.5902721,10.7843195 Z" id="Shape" fill="#4A2B13"></path>
                            <path d="M36.230562,8.2083011 C36.0048634,7.95375383 35.7265584,7.75181299 35.3990409,7.60756953 C35.0698265,7.4616291 34.6930965,7.38865888 34.272245,7.38865888 C33.8496965,7.38865888 33.4729666,7.4616291 33.1437521,7.60756953 C32.8145376,7.75181299 32.5379296,7.95205685 32.310534,8.2083011 C32.0831384,8.46115139 31.9117433,8.75812321 31.7929545,9.09751958 C31.6758628,9.43521896 31.6147715,9.80346402 31.6147715,10.1937698 C31.6147715,10.5857726 31.6741658,10.9506237 31.7912576,11.2917171 C31.9083493,11.6294165 32.0814415,11.9263883 32.308837,12.1809356 C32.5345356,12.4337859 32.8128406,12.6340297 33.1420551,12.7799701 C33.4712696,12.9276076 33.8479995,13.0005778 34.270548,13.0005778 C34.6930965,13.0005778 35.0681295,12.9276076 35.3973439,12.7799701 C35.7248614,12.6357267 36.0031665,12.4371798 36.228865,12.1809356 C36.4562606,11.9263883 36.6259588,11.6294165 36.7481415,11.2917171 C36.8635362,10.9506237 36.9246276,10.5857726 36.9246276,10.1937698 C36.9246276,9.80346402 36.8652332,9.43521896 36.7481415,9.09751958 C36.6276558,8.75812321 36.4579576,8.46115139 36.230562,8.2083011 L36.230562,8.2083011 Z M35.4533443,10.7843195 C35.4109198,10.9726845 35.3379496,11.1440797 35.2344337,11.295111 C35.1343118,11.4461424 35.0036442,11.5683251 34.8458249,11.6582652 C34.6863086,11.7482052 34.4945496,11.7940237 34.268851,11.7940237 C34.0431524,11.7940237 33.8496965,11.7482052 33.6918772,11.6582652 C33.5323609,11.5683251 33.4050873,11.4461424 33.3032684,11.295111 C33.2031464,11.1440797 33.1301762,10.9743815 33.0843577,10.7843195 C33.0402362,10.5908636 33.0164784,10.3957107 33.0164784,10.1937698 C33.0164784,9.991829 33.0385392,9.79667609 33.0843577,9.60491715 C33.1301762,9.41485518 33.2031464,9.24346002 33.3032684,9.09242863 C33.4067843,8.94139725 33.5340579,8.82091154 33.6918772,8.72927452 C33.8496965,8.63933449 34.0431524,8.59521296 34.268851,8.59521296 C34.4945496,8.59521296 34.6880055,8.63933449 34.8458249,8.72927452 C35.0036442,8.82091154 35.1326148,8.94139725 35.2344337,9.09242863 C35.3379496,9.24346002 35.4109198,9.4131582 35.4533443,9.60491715 C35.4974659,9.79667609 35.5212236,9.991829 35.5212236,10.1937698 C35.5212236,10.3957107 35.4991629,10.5908636 35.4533443,10.7843195 L35.4533443,10.7843195 Z" id="Shape" fill="#4A2B13"></path>
                            <path d="M39.0916734,7.50405364 L37.6865724,7.50405364 L37.6865724,12.88688 L41.5998125,12.88688 L41.5998125,11.6803259 L39.0916734,11.6803259 L39.0916734,7.50405364 Z" id="Shape" fill="#4A2B13"></path>
                            <path d="M2.97480914,32.3224129 C2.66086751,29.4833623 4.02184693,27.7643197 4.54451733,27.2195885 C5.02815716,30.1570641 7.56514499,32.4174439 10.641773,32.4174439 C13.5537939,32.4174439 15.9889628,30.3878536 16.6507857,27.6743796 C17.1513953,28.5585072 17.9981893,30.3725808 17.7911575,32.3207159 C22.9601641,32.2782913 20.4129944,26.3727946 16.7933322,25.7279415 C16.7661805,25.4241817 16.7390287,25.122119 16.6745434,24.8319351 C16.4624207,22.9669521 14.7908936,19.1725007 10.0003139,19.2845015 C5.87155712,19.3829264 4.96876279,22.4901002 4.75494308,24.3822349 C4.60900264,24.8489049 4.51397166,25.3376357 4.48512297,25.8433363 C-0.894309423,26.7766763 -0.303759747,32.2324728 2.97480914,32.3224129 L2.97480914,32.3224129 Z M7.73823713,24.467084 C7.73823713,24.467084 8.26769547,24.648661 8.26769547,26.3744916 C9.18067169,26.6918272 10.7673497,23.6915633 10.7673497,23.6915633 L10.7673497,26.052065 C11.7787509,26.3269761 14.9538039,25.9672159 14.9538039,25.9672159 L15.0708956,26.0639439 C15.0742896,26.1165503 15.0861684,26.1691568 15.0861684,26.2183692 C15.0861684,28.665417 13.0922148,30.6644616 10.6400761,30.6644616 C8.22187696,30.6644616 6.25846898,28.7197205 6.20586254,26.3167942 C7.08999008,25.9926707 7.73823713,24.467084 7.73823713,24.467084 L7.73823713,24.467084 Z" id="Shape" fill="#000000"></path>
                            <path d="M17.7877635,41.1942339 L20.265357,40.5816234 L14.3411934,32.5735662 L11.9297822,32.5735662 L9.32321816,32.5735662 L7.13750557,32.5735662 L1.05212873,39.9096186 L2.13480314,42.1581195 L6.90671604,36.6904441 L7.1816271,38.8574899 L2.74741358,46.4854232 L7.86211681,46.4854232 L7.86211681,53.1172282 L7.190112,53.1172282 L7.190112,53.8944459 L10.2514672,53.8944459 L10.2514672,53.1172282 L10.2514672,46.4854232 L11.3986269,46.4854232 L11.3986269,53.1172282 L11.3986269,53.8944459 L14.4548912,53.8944459 L14.4548912,53.1172282 L13.7845834,53.1172282 L13.7845834,46.4854232 L17.7521269,46.4854232 L13.8405838,38.8574899 L14.0527065,36.1898345 L17.7877635,41.1942339 Z" id="Shape" fill="#B0DB72"></path>
                            <path d="M40.8192009,19.2828045 C39.5108279,19.2828045 37.8053612,20.3519031 36.8788091,21.1393026 C35.7231645,22.1133702 36.6327467,22.97374 36.6327467,24.6028425 C36.6327467,27.548803 39.0119152,29.9262745 41.9544817,29.9262745 C44.8936543,29.9262745 47.2779137,27.5505 47.2779137,24.6028425 C47.2779137,22.7684052 47.9210698,21.0866962 46.505787,20.1279015 C45.6572961,19.5611095 41.925633,19.2828045 40.8192009,19.2828045 L40.8192009,19.2828045 Z M42.0766644,28.6891748 C39.9248915,28.6891748 38.1837881,26.9158288 38.1837881,24.7267222 C38.1837881,24.5027206 38.2160308,24.2922949 38.2482734,24.0801721 C39.225735,23.9002921 39.8909518,24.2278096 39.8909518,24.2278096 L41.5234483,23.4268341 C41.5234483,23.4268341 40.6953212,24.6316912 41.4419932,24.2278096 C43.1033384,23.6678056 44.9615335,23.9002921 45.9084494,24.0852631 C45.944086,24.2956888 45.9746317,24.5027206 45.9746317,24.7267222 C45.9729347,26.9158288 44.2318313,28.6891748 42.0766644,28.6891748 L42.0766644,28.6891748 Z" id="Shape" fill="#000000"></path>
                            <path d="M38.6674279,30.7968262 L32.6482334,40.0233164 L34.4860647,41.9646636 L38.2991829,35.2191609 L38.1142119,44.7052893 L39.1731285,44.7052893 L39.1731285,51.3404882 L38.5028207,51.3404882 L38.5028207,52.1194029 L41.5641759,52.1194029 L41.5641759,51.3404882 L41.5641759,44.7052893 L42.7096386,44.7052893 L42.7096386,51.3404882 L42.7096386,52.1194029 L45.7659029,52.1194029 L45.7659029,51.3404882 L45.0972921,51.3404882 L45.0972921,44.7052893 L46.3819073,44.7052893 L46.3819073,36.140622 L49.7317494,40.810716 L51.0265466,38.7353072 L45.7014176,30.7968262 L38.6674279,30.7968262 Z" id="Shape" fill="#68848B"></path>
                        </g>
                    </g>
                    <g id="trees13-+-Rectangle-15-Copy" stroke="#4A2B13" fill="#FFE9D1" fill-opacity="0.3">
                        <rect id="Rectangle-15" x="0" y="0" width="180" height="129" rx="8"></rect>
                    </g>
                </g>
                <text id="Our-Mission" sketch:type="MSTextLayer" font-family="Montserrat" font-size="14" font-weight="normal" fill="#4A2B13">
                    <tspan x="49" y="96">Our Mission</tspan>
                </text>
            </g>
        </g>
    </g>
</svg>