<?xml version="1.0" encoding="UTF-8" standalone="no"?>
<svg width="52px" height="52px" viewBox="0 0 52 52" version="1.1" xmlns="http://www.w3.org/2000/svg" xmlns:xlink="http://www.w3.org/1999/xlink" xmlns:sketch="http://www.bohemiancoding.com/sketch/ns">
    <!-- Generator: Sketch 3.3.3 (12081) - http://www.bohemiancoding.com/sketch -->
    <title>twitter</title>
    <desc>Created with Sketch.</desc>
    <defs></defs>
    <g id="Page-1" stroke="none" stroke-width="1" fill="none" fill-rule="evenodd" sketch:type="MSPage">
        <g id="style-guide" sketch:type="MSArtboardGroup" transform="translate(-229.000000, -1940.000000)" fill="#4A2B13">
            <g id="email131-+-facebook2-+-twitter" sketch:type="MSLayerGroup" transform="translate(229.000000, 1939.000000)">
                <g id="twitter" transform="translate(0.000000, 1.037868)" sketch:type="MSShapeGroup">
                    <path d="M25.81904,0 C11.58248,0 0,11.58248 0,25.81904 C0,40.05456 11.58248,51.63808 25.81904,51.63808 C40.05456,51.63808 51.63808,40.05456 51.63808,25.81904 C51.63808,11.58248 40.05664,0 25.81904,0 L25.81904,0 Z M37.33704,19.90976 C37.34848,20.1656 37.35472,20.42352 37.35472,20.68144 C37.35472,28.53448 31.37888,37.58664 20.44536,37.58664 C17.08928,37.58664 13.96512,36.60592 11.336,34.91904 C11.80088,34.97416 12.27408,35.00224 12.75352,35.00224 C15.53864,35.00224 18.10016,34.05168 20.1344,32.4584 C17.5344,32.41056 15.33896,30.69248 14.58288,28.33064 C14.9448,28.39928 15.31816,28.43776 15.69984,28.43776 C16.24168,28.43776 16.76792,28.36704 17.26608,28.2308 C14.54752,27.68584 12.49976,25.28448 12.49976,22.40368 C12.49976,22.37872 12.49976,22.35272 12.5008,22.3288 C13.3016,22.77288 14.21784,23.0412 15.19128,23.07136 C13.598,22.00744 12.54864,20.18744 12.54864,18.12616 C12.54864,17.03624 12.84088,16.01496 13.35256,15.1372 C16.28224,18.73352 20.66272,21.09848 25.60064,21.34808 C25.49872,20.91232 25.44776,20.45992 25.44776,19.99296 C25.44776,16.71176 28.10808,14.0504 31.38928,14.0504 C33.09904,14.0504 34.64136,14.77216 35.72712,15.92656 C37.08224,15.66032 38.35104,15.16736 39.50232,14.48408 C39.05512,15.87248 38.116,17.03624 36.88568,17.77256 C38.08896,17.62904 39.23712,17.3108 40.29896,16.8376 C39.50648,18.02736 38.49872,19.07464 37.33704,19.90976 L37.33704,19.90976 Z" id="Shape"></path>
                </g>
            </g>
        </g>
    </g>
</svg>